<svg width="25" height="25" viewBox="0 0 25 25" fill="none" xmlns="http://www.w3.org/2000/svg">
<path d="M4.89907 0.580078C2.20496 0.580078 0 2.69239 0 5.27339V19.8375C0 22.4185 2.20491 24.5301 4.89907 24.5301H20.1017C22.7959 24.5301 25 22.4185 25 19.8375V5.27339C25 2.69243 22.7959 0.580078 20.1017 0.580078H4.89907ZM6.13125 4.53231C7.42302 4.53231 8.21869 5.34472 8.24325 6.41261C8.24325 7.45693 7.42297 8.29217 6.10627 8.29217H6.08203C4.81485 8.29217 3.99582 7.45698 3.99582 6.41261C3.99582 5.34474 4.83964 4.53231 6.13123 4.53231H6.13125ZM17.2631 9.52352C19.7474 9.52352 21.6098 11.0791 21.6098 14.4219V20.6624H17.8343V14.8403C17.8343 13.3773 17.2879 12.3791 15.9216 12.3791C14.8785 12.3791 14.2568 13.0519 13.9838 13.7018C13.8841 13.9343 13.8596 14.259 13.8596 14.5843V20.6624H10.0841C10.0841 20.6624 10.1337 10.7999 10.0841 9.77875H13.8604V11.32C14.3621 10.5784 15.2595 9.5235 17.2631 9.5235V9.52352ZM4.21852 9.77954H7.99399V20.6624H4.21852V9.77954Z" fill="white"/>
</svg>
