<svg width="75" height="30" viewBox="0 0 75 30" fill="none" xmlns="http://www.w3.org/2000/svg">
<rect width="74.4444" height="30" rx="5" fill="#00008E"/>
<path d="M21.5684 10.0469L24.125 17.2656L26.668 10.0469H29.3613V20H27.3037V17.2793L27.5088 12.583L24.8223 20H23.4141L20.7344 12.5898L20.9395 17.2793V20H18.8887V10.0469H21.5684ZM34.4268 20.1367C33.3421 20.1367 32.458 19.804 31.7744 19.1387C31.0954 18.4733 30.7559 17.5869 30.7559 16.4795V16.2881C30.7559 15.5452 30.8994 14.8822 31.1865 14.2988C31.4736 13.7109 31.8792 13.2598 32.4033 12.9453C32.932 12.6263 33.5335 12.4668 34.208 12.4668C35.2197 12.4668 36.015 12.7858 36.5938 13.4238C37.1771 14.0618 37.4688 14.9665 37.4688 16.1377V16.9443H32.7588C32.8226 17.4274 33.014 17.8148 33.333 18.1064C33.6566 18.3981 34.0645 18.5439 34.5566 18.5439C35.3177 18.5439 35.9124 18.2682 36.3408 17.7168L37.3115 18.8037C37.0153 19.223 36.6143 19.5511 36.1084 19.7881C35.6025 20.0205 35.042 20.1367 34.4268 20.1367ZM34.2012 14.0664C33.8092 14.0664 33.4902 14.1986 33.2441 14.4629C33.0026 14.7272 32.8477 15.1055 32.7793 15.5977H35.5273V15.4404C35.5182 15.0029 35.3997 14.6657 35.1719 14.4287C34.944 14.1872 34.6204 14.0664 34.2012 14.0664ZM40.415 12.6035L40.4766 13.458C41.0052 12.7972 41.7139 12.4668 42.6025 12.4668C43.3864 12.4668 43.9697 12.6969 44.3525 13.1572C44.7354 13.6175 44.9313 14.3057 44.9404 15.2217V20H42.9648V15.2695C42.9648 14.8503 42.8737 14.5472 42.6914 14.3604C42.5091 14.1689 42.2061 14.0732 41.7822 14.0732C41.2262 14.0732 40.8092 14.3102 40.5312 14.7842V20H38.5557V12.6035H40.415ZM50.874 19.248C50.3864 19.8405 49.7119 20.1367 48.8506 20.1367C48.0576 20.1367 47.4515 19.9089 47.0322 19.4531C46.6175 18.9974 46.4056 18.3298 46.3965 17.4502V12.6035H48.3721V17.3818C48.3721 18.152 48.723 18.5371 49.4248 18.5371C50.0947 18.5371 50.555 18.3047 50.8057 17.8398V12.6035H52.7881V20H50.9287L50.874 19.248Z" fill="white"/>
</svg>
